<svg width="351" height="435" viewBox="0 0 351 435" fill="none" xmlns="http://www.w3.org/2000/svg">
<ellipse cx="177.115" cy="381.54" rx="173" ry="45.5" fill="#66706D" fill-opacity="0.12" style="mix-blend-mode:multiply"/>
<path d="M203.355 366.188C192.903 380.585 155.27 388.831 111.443 385.123C67.6173 381.416 31.8646 366.962 24.0193 351.017C25.1913 349.396 26.7189 347.804 28.5954 346.325C43.0984 334.852 77.0476 328.752 115.894 332.038C154.741 335.324 187.183 347.041 199.553 360.787C201.154 362.561 202.393 364.386 203.315 366.185L203.355 366.188Z" fill="#F48C0F"/>
<path d="M118.085 306.62C58.4116 301.571 8.35475 317.411 6.27296 342.019C5.83595 347.185 7.54671 352.369 11.1458 357.343C14.6367 362.186 19.8544 366.847 26.5326 371.181C45.4041 383.347 75.7725 392.757 110.549 395.699C145.325 398.641 176.84 394.507 197.49 385.643C204.801 382.493 210.728 378.775 214.983 374.587C219.327 370.284 221.924 365.465 222.361 360.299C224.442 335.691 177.758 311.668 118.085 306.62ZM204.554 364.242C204.219 364.91 203.808 365.53 203.355 366.189C192.903 380.585 155.27 388.831 111.444 385.124C67.6174 381.416 31.8647 366.962 24.0194 351.018C23.6793 350.333 23.3821 349.612 23.164 348.897C22.5611 347.084 22.3173 345.261 22.4721 343.431C24.0584 324.679 66.4842 312.947 117.187 317.236C167.889 321.525 207.741 340.218 206.155 358.969C206 360.8 205.45 362.597 204.554 364.242Z" fill="#F7B66D"/>
<path d="M222.362 360.3L219.856 389.911C217.775 414.52 167.718 430.359 108.045 425.311C48.3717 420.263 1.68359 396.281 3.76539 371.672L6.27042 342.06C5.83342 347.226 7.54418 352.41 11.1433 357.384C14.6342 362.227 19.8519 366.888 26.5301 371.222C45.4016 383.388 75.77 392.798 110.546 395.74C145.323 398.682 176.837 394.548 197.487 385.684C204.799 382.534 210.725 378.815 214.98 374.628C219.324 370.325 221.921 365.506 222.358 360.34L222.362 360.3Z" fill="#EB692D"/>
<path d="M206.158 358.929C206.003 360.76 205.453 362.557 204.558 364.201C204.223 364.87 203.812 365.49 203.358 366.148C202.475 364.353 201.197 362.524 199.596 360.75C187.226 347.004 154.784 335.288 115.937 332.002C77.0907 328.715 43.1381 334.856 28.6385 346.288C26.762 347.768 25.2344 349.359 24.0623 350.981C23.7222 350.296 23.425 349.575 23.2069 348.86C22.604 347.047 22.3602 345.224 22.5151 343.394C24.1014 324.642 66.5272 312.91 117.23 317.199C167.932 321.488 207.784 340.181 206.198 358.933L206.158 358.929Z" fill="#EB692D"/>
<path d="M212.306 317.151C200.384 330.356 162.088 334.558 118.903 326.217C75.7189 317.876 41.7035 299.706 35.5959 283.019C36.9335 281.531 38.6215 280.111 40.6446 278.839C56.284 268.971 90.6891 266.512 128.967 273.905C167.245 281.298 198.259 296.394 209.099 311.376C210.503 313.31 211.541 315.257 212.267 317.143L212.306 317.151Z" fill="#EBB22D"/>
<path d="M133.845 248.863C75.0459 237.506 23.59 247.939 18.9064 272.188C17.9232 277.278 19.0737 282.614 22.1242 287.943C25.081 293.129 29.7741 298.317 35.9543 303.336C53.427 317.437 82.6242 330.02 116.891 336.639C151.159 343.257 182.934 342.493 204.409 335.873C212.013 333.517 218.301 330.449 222.977 326.737C227.753 322.92 230.847 318.404 231.83 313.314C236.514 289.065 192.645 260.22 133.845 248.863ZM213.706 315.343C213.302 315.971 212.828 316.545 212.307 317.151C200.385 330.356 162.089 334.559 118.904 326.218C75.7197 317.877 41.7043 299.707 35.5968 283.02C35.3312 282.303 35.1124 281.554 34.9714 280.82C34.5644 278.954 34.5157 277.115 34.864 275.311C38.4329 256.834 81.8647 249.674 131.825 259.324C181.785 268.974 219.426 291.793 215.857 310.27C215.509 312.074 214.771 313.802 213.706 315.343Z" fill="#FFD24D"/>
<path d="M231.83 313.314L226.194 342.492C221.511 366.741 170.055 377.174 111.255 365.817C52.4559 354.46 8.5789 325.654 13.2625 301.406L18.8983 272.228C17.9152 277.318 19.0657 282.654 22.1161 287.983C25.0729 293.169 29.7661 298.357 35.9463 303.376C53.419 317.477 82.6162 330.06 116.883 336.679C151.151 343.297 182.926 342.533 204.401 335.913C212.005 333.557 218.293 330.489 222.969 326.777C227.745 322.96 230.839 318.444 231.822 313.354L231.83 313.314Z" fill="#FFB300"/>
<path d="M215.865 310.23C215.516 312.033 214.779 313.762 213.714 315.302C213.309 315.931 212.835 316.505 212.314 317.111C211.627 315.232 210.55 313.278 209.146 311.344C198.307 296.361 167.292 281.266 129.014 273.873C90.7362 266.479 56.3235 268.979 40.6918 278.807C38.6687 280.079 36.9807 281.499 35.6431 282.987C35.3776 282.27 35.1587 281.521 35.0177 280.787C34.6108 278.921 34.562 277.082 34.9104 275.278C38.4792 256.802 81.9111 249.641 131.871 259.291C181.831 268.941 219.472 291.76 215.904 310.237L215.865 310.23Z" fill="#FFB300"/>
<path d="M231.602 262.599C217.888 273.931 179.388 272.523 137.874 257.994C96.3605 243.465 65.3472 220.544 61.73 203.146C63.2696 201.868 65.1461 200.709 67.3326 199.744C84.2402 192.254 118.637 194.821 155.434 207.7C192.231 220.579 220.722 240.021 229.269 256.42C230.377 258.538 231.121 260.614 231.565 262.586L231.602 262.599Z" fill="#9D8FFF"/>
<path d="M163.9 183.631C107.376 163.848 54.9497 166.692 46.7914 190.002C45.0788 194.895 45.4416 200.342 47.6851 206.057C49.8567 211.618 53.7459 217.434 59.131 223.298C74.3685 239.789 101.427 256.481 134.368 268.011C167.309 279.54 198.858 283.402 221.067 279.974C228.934 278.748 235.601 276.627 240.766 273.634C246.047 270.552 249.764 266.533 251.477 261.64C259.635 238.33 220.424 203.414 163.9 183.631ZM233.25 261.013C232.759 261.576 232.206 262.075 231.602 262.599C217.888 273.931 179.388 272.522 137.874 257.993C96.3607 243.464 65.3474 220.543 61.7302 203.145C61.5716 202.398 61.4639 201.625 61.4311 200.878C61.2997 198.972 61.5187 197.146 62.1256 195.412C68.3421 177.65 112.353 176.879 160.38 193.687C208.407 210.496 242.332 238.545 236.116 256.307C235.509 258.041 234.528 259.643 233.25 261.013Z" fill="#B7AFFF"/>
<path d="M251.477 261.641L241.66 289.69C233.501 313 181.075 315.844 124.551 296.061C68.0267 276.278 28.8025 241.401 36.9608 218.091L46.7778 190.041C45.0652 194.935 45.428 200.381 47.6714 206.097C49.8431 211.658 53.7323 217.473 59.1173 223.337C74.3549 239.828 101.413 256.521 134.355 268.05C167.296 279.579 198.845 283.441 221.054 280.013C228.92 278.787 235.587 276.666 240.752 273.673C246.033 270.591 249.75 266.572 251.463 261.679L251.477 261.641Z" fill="#897AF8"/>
<path d="M236.129 256.27C235.522 258.004 234.541 259.607 233.263 260.976C232.772 261.54 232.219 262.038 231.616 262.562C231.209 260.603 230.428 258.513 229.32 256.396C220.773 239.997 192.282 220.554 155.485 207.676C118.688 194.797 84.2776 192.269 67.3835 199.72C65.197 200.684 63.3205 201.844 61.7808 203.122C61.6223 202.374 61.5146 201.601 61.4818 200.855C61.3504 198.949 61.5694 197.123 62.1762 195.389C68.3928 177.627 112.404 176.855 160.431 193.664C208.458 210.473 242.383 238.521 236.166 256.283L236.129 256.27Z" fill="#897AF8"/>
<path d="M260.387 208.458C245.533 218.248 207.408 212.706 167.699 193.794C127.989 174.883 99.6222 148.758 97.8979 131.072C99.566 129.968 101.556 129.016 103.834 128.293C121.449 122.666 155.371 128.919 190.568 145.682C225.766 162.444 251.999 184.84 258.732 202.063C259.606 204.287 260.122 206.432 260.351 208.44L260.387 208.458Z" fill="#6FD26E"/>
<path d="M201.575 122.665C147.507 96.9156 95.0794 94.1018 84.4604 116.399C82.2313 121.08 82.0059 126.534 83.6215 132.457C85.1822 138.219 88.423 144.42 93.146 150.829C106.521 168.864 131.626 188.371 163.136 203.377C194.645 218.384 225.595 225.618 248.044 224.599C255.997 224.227 262.854 222.835 268.311 220.415C273.892 217.919 278.021 214.324 280.25 209.644C290.869 187.346 255.642 148.415 201.575 122.665ZM262.196 207.059C261.647 207.566 261.044 208.002 260.388 208.458C245.534 218.249 207.408 212.707 167.699 193.795C127.99 174.883 99.6227 148.759 97.8984 131.073C97.8211 130.313 97.7973 129.533 97.845 128.787C97.9194 126.878 98.3336 125.086 99.1235 123.427C107.215 106.437 151.054 110.406 196.994 132.284C242.933 154.163 273.643 185.699 265.552 202.689C264.762 204.347 263.614 205.835 262.196 207.059Z" fill="#C5FB91"/>
<path d="M280.25 209.644L267.472 236.474C256.853 258.771 204.426 255.958 150.358 230.208C96.2902 204.458 61.0462 165.564 71.6652 143.267L84.4431 116.436C82.214 121.117 81.9886 126.571 83.6041 132.495C85.1649 138.257 88.4057 144.457 93.1286 150.866C106.503 168.901 131.609 188.408 163.118 203.415C194.628 218.421 225.578 225.655 248.027 224.636C255.98 224.264 262.836 222.873 268.294 220.453C273.875 217.957 278.003 214.361 280.232 209.681L280.25 209.644Z" fill="#15B369"/>
<path d="M265.569 202.652C264.779 204.31 263.631 205.798 262.214 207.022C261.665 207.529 261.062 207.965 260.405 208.421C260.212 206.43 259.66 204.268 258.786 202.044C252.053 184.821 225.82 162.425 190.622 145.663C155.424 128.9 121.486 122.683 103.888 128.274C101.61 128.997 99.6198 129.948 97.9517 131.053C97.8744 130.293 97.8506 129.513 97.8983 128.767C97.9727 126.858 98.3869 125.066 99.1768 123.408C107.268 106.417 151.107 110.386 197.047 132.264C242.986 154.143 273.696 185.679 265.605 202.669L265.569 202.652Z" fill="#15B369"/>
<path d="M288.828 161.225C272.308 167.828 236.076 154.731 200.982 128.22C165.887 101.709 143.353 70.4136 145.221 52.7421C147.077 51.9956 149.218 51.4643 151.595 51.2132C169.982 49.2438 201.953 62.1911 233.06 85.6901C264.167 109.189 285.361 136.403 288.493 154.628C288.901 156.983 288.975 159.187 288.796 161.201L288.828 161.225Z" fill="#6AB4F9"/>
<path d="M248.471 65.3574C200.686 29.2602 149.896 15.9602 135.01 35.6662C131.885 39.8028 130.567 45.1001 130.958 51.2277C131.328 57.1859 133.256 63.9115 136.594 71.1394C146.068 91.4956 166.737 115.653 194.585 136.69C222.433 157.727 251.296 171.038 273.491 174.554C281.356 175.789 288.352 175.805 294.185 174.532C300.154 173.209 304.921 170.518 308.046 166.381C322.932 146.675 296.255 101.455 248.471 65.3574ZM290.881 160.219C290.242 160.605 289.563 160.911 288.828 161.226C272.309 167.829 236.077 154.732 200.982 128.221C165.888 101.71 143.354 70.4143 145.222 52.7429C145.299 51.9827 145.433 51.2138 145.629 50.4927C146.086 48.6379 146.852 46.9657 147.96 45.5C159.303 30.4844 201.448 43.188 242.049 73.8587C282.65 104.529 306.39 141.597 295.047 156.612C293.94 158.078 292.516 159.305 290.881 160.219Z" fill="#93CAFD"/>
<path d="M308.046 166.382L290.134 190.094C275.247 209.8 224.457 196.5 176.673 160.403C128.888 124.306 102.186 79.1179 117.072 59.4119L134.985 35.6996C131.86 39.8362 130.543 45.1334 130.934 51.2611C131.304 57.2193 133.232 63.9448 136.569 71.1727C146.044 91.529 166.713 115.686 194.561 136.723C222.408 157.76 251.271 171.071 273.467 174.588C281.332 175.822 288.328 175.838 294.16 174.565C300.13 173.243 304.897 170.551 308.022 166.414L308.046 166.382Z" fill="#1BB2F7"/>
<path d="M295.072 156.582C293.964 158.048 292.541 159.274 290.906 160.188C290.266 160.575 289.588 160.881 288.853 161.195C289.064 159.206 288.958 156.977 288.55 154.622C285.418 136.397 264.224 109.183 233.117 85.6843C202.01 62.1853 170.014 49.2706 151.652 51.2074C149.275 51.4585 147.134 51.9898 145.278 52.7363C145.355 51.9761 145.489 51.2072 145.686 50.4862C146.142 48.6314 146.909 46.9591 148.016 45.4934C159.359 30.4778 201.504 43.1814 242.105 73.8521C282.706 104.523 306.446 141.59 295.103 156.606L295.072 156.582Z" fill="#1BB2F7"/>
</svg>
