<svg width="129" height="28" viewBox="0 0 129 28" fill="none" xmlns="http://www.w3.org/2000/svg">
<path fill-rule="evenodd" clip-rule="evenodd" d="M3.8147e-06 14C3.8147e-06 21.732 6.09145 28 13.6056 28C21.1198 28 27.2113 21.732 27.2113 14C27.2113 6.54212 21.5441 0.446217 14.3993 0.0233277L0.340109 0C0.21489 0 0.113356 0.104476 0.113356 0.233277C0.113356 2.37025 1.50924 4.17167 3.41395 4.72495C1.28956 7.1947 3.8147e-06 10.4424 3.8147e-06 14ZM13.4695 5.92085C11.2904 5.92085 9.5239 18.2082 9.5239 20.4634C9.5239 22.7186 11.2904 24.2959 13.4695 24.2959C15.6487 24.2959 17.4152 22.7186 17.4152 20.4634C17.4152 18.2082 15.6487 5.92085 13.4695 5.92085Z" fill="#0EA960"/>
<path d="M45.4698 4.66324H48.1904V16.1158C48.1904 17.6428 47.817 18.9543 47.0701 20.0501C46.3233 21.1639 45.2475 22.0173 43.8428 22.6101C42.438 23.2209 40.7487 23.5263 38.775 23.5263L38.3215 20.9124C40.562 20.8585 42.2602 20.4274 43.416 19.619C44.5896 18.8106 45.1764 17.6518 45.1764 16.1428V16.1158H45.5231C45.1142 16.7266 44.5185 17.2476 43.7361 17.6788C42.9715 18.1099 42.0557 18.3255 40.9888 18.3255C39.8152 18.3255 38.775 18.0381 37.8681 17.4632C36.9612 16.8883 36.25 16.0799 35.7343 15.0379C35.2364 13.996 34.9875 12.7833 34.9875 11.4001C34.9875 10.0168 35.2364 8.80414 35.7343 7.76218C36.25 6.72022 36.9612 5.9118 37.8681 5.33692C38.775 4.76205 39.8152 4.47461 40.9888 4.47461C41.6467 4.47461 42.2424 4.56443 42.7759 4.74408C43.3271 4.90577 43.8072 5.13033 44.2162 5.41776C44.6429 5.68724 44.9897 5.99264 45.2564 6.33397L45.4698 4.66324ZM38.2149 11.4001C38.2149 12.6396 38.5349 13.6457 39.1751 14.4182C39.8152 15.1906 40.6687 15.5769 41.7356 15.5769C42.358 15.5769 42.927 15.4152 43.4427 15.0918C43.9583 14.7505 44.3762 14.2654 44.6963 13.6367C45.0164 13.0079 45.1764 12.2624 45.1764 11.4001C45.1764 10.5018 45.0164 9.74729 44.6963 9.13649C44.3762 8.50772 43.9495 8.03165 43.416 7.70828C42.9003 7.38491 42.3402 7.22323 41.7356 7.22323C40.6687 7.22323 39.8152 7.60947 39.1751 8.38196C38.5349 9.13649 38.2149 10.1425 38.2149 11.4001Z" fill="#0EA960"/>
<path d="M49.8597 4.66324H52.5803L52.8204 6.33397C53.176 5.88485 53.5939 5.51657 54.074 5.22913C54.5541 4.92373 55.0698 4.71713 55.621 4.60935C56.19 4.50156 56.759 4.51952 57.328 4.66324V7.46576C56.8657 7.30407 56.3678 7.26814 55.8344 7.35797C55.3187 7.42983 54.8386 7.62744 54.394 7.95081C53.9495 8.25621 53.585 8.69635 53.3005 9.27122C53.016 9.82813 52.8737 10.5198 52.8737 11.3462V18.1369H49.8597V4.66324Z" fill="#0EA960"/>
<path d="M63.7865 18.3255C62.5063 18.3255 61.3593 18.047 60.3458 17.4901C59.3322 16.9153 58.5409 16.1158 57.9719 15.0918C57.4029 14.0499 57.1184 12.8283 57.1184 11.427C57.1184 10.0078 57.4118 8.77719 57.9986 7.73523C58.5854 6.69327 59.3945 5.89383 60.4258 5.33692C61.4571 4.76205 62.6041 4.47461 63.8666 4.47461C65.1468 4.47461 66.2938 4.76205 67.3073 5.33692C68.3387 5.89383 69.1566 6.69327 69.7612 7.73523C70.3658 8.75922 70.6681 9.97185 70.6681 11.3731C70.6681 12.7923 70.3569 14.0229 69.7345 15.0649C69.1299 16.1068 68.3031 16.9153 67.254 17.4901C66.2226 18.047 65.0668 18.3255 63.7865 18.3255ZM63.7599 15.6038C64.3822 15.6038 64.969 15.4511 65.5203 15.1457C66.0893 14.8403 66.5516 14.3822 66.9072 13.7714C67.2629 13.1426 67.4407 12.3432 67.4407 11.3731C67.4407 10.4389 67.2718 9.66645 66.9339 9.05564C66.596 8.42688 66.1515 7.95979 65.6003 7.65439C65.049 7.34898 64.4534 7.19628 63.8132 7.19628C63.1908 7.19628 62.6129 7.34898 62.0795 7.65439C61.5638 7.95979 61.146 8.42688 60.8259 9.05564C60.5058 9.66645 60.3458 10.4569 60.3458 11.427C60.3458 12.3612 60.4969 13.1426 60.7992 13.7714C61.1193 14.3822 61.5371 14.8403 62.0528 15.1457C62.5685 15.4511 63.1375 15.6038 63.7599 15.6038Z" fill="#0EA960"/>
<path d="M77.5206 18.1369H74.56L70.4524 4.66324H73.5197L76.0269 14.5259L78.6142 4.66324H81.5482L84.0287 14.499L86.5093 4.66324H89.5233L85.4424 18.1369H82.4284L80.0012 9.0287L77.5206 18.1369Z" fill="#0EA960"/>
<path d="M90.0238 4.66324H92.7444L92.9578 5.98366C93.4023 5.51657 93.9269 5.14829 94.5314 4.87882C95.1538 4.60935 95.8206 4.47461 96.5319 4.47461C97.581 4.47461 98.479 4.69917 99.2258 5.14829C99.9904 5.57945 100.577 6.22618 100.986 7.08849C101.395 7.93284 101.6 8.99277 101.6 10.2683V18.1369H98.5857V10.6725C98.5857 9.5407 98.3545 8.68737 97.8922 8.11249C97.4476 7.53762 96.7719 7.25018 95.8651 7.25018C94.9404 7.25018 94.238 7.5466 93.7579 8.13944C93.2778 8.71431 93.0378 9.56764 93.0378 10.6994V18.1369H90.0238V4.66324Z" fill="#0EA960"/>
<path d="M109.03 18.3255C107.697 18.3255 106.523 18.0291 105.51 17.4362C104.514 16.8434 103.732 16.017 103.163 14.9571C102.611 13.8972 102.336 12.6756 102.336 11.2923C102.336 9.98083 102.611 8.81312 103.163 7.78912C103.714 6.76513 104.478 5.95671 105.456 5.36387C106.434 4.77103 107.546 4.47461 108.79 4.47461C110.053 4.47461 111.164 4.75306 112.124 5.30998C113.085 5.86689 113.832 6.64836 114.365 7.65439C114.916 8.64245 115.192 9.7922 115.192 11.1036C115.192 11.3192 115.183 11.5528 115.165 11.8043C115.147 12.0378 115.121 12.2893 115.085 12.5588H105.59C105.679 13.1876 105.874 13.7355 106.177 14.2026C106.497 14.6517 106.897 15.002 107.377 15.2535C107.857 15.505 108.408 15.6308 109.03 15.6308C109.777 15.6308 110.444 15.4781 111.031 15.1727C111.635 14.8673 112.053 14.4631 112.285 13.96L114.925 14.8493C114.392 15.9272 113.6 16.7805 112.551 17.4093C111.502 18.0201 110.329 18.3255 109.03 18.3255ZM111.911 10.0796C111.893 9.52273 111.742 9.01972 111.458 8.57059C111.173 8.12147 110.8 7.77116 110.337 7.51965C109.875 7.25018 109.359 7.11544 108.79 7.11544C108.293 7.11544 107.821 7.2412 107.377 7.4927C106.932 7.74421 106.55 8.09453 106.23 8.54365C105.928 8.9748 105.732 9.4868 105.643 10.0796H111.911Z" fill="#0EA960"/>
<path d="M122.141 18.3255C120.807 18.3255 119.633 18.0291 118.62 17.4362C117.624 16.8434 116.842 16.017 116.273 14.9571C115.721 13.8972 115.446 12.6756 115.446 11.2923C115.446 9.98083 115.721 8.81312 116.273 7.78912C116.824 6.76513 117.589 5.95671 118.567 5.36387C119.545 4.77103 120.656 4.47461 121.901 4.47461C123.163 4.47461 124.274 4.75306 125.235 5.30998C126.195 5.86689 126.942 6.64836 127.475 7.65439C128.026 8.64245 128.302 9.7922 128.302 11.1036C128.302 11.3192 128.293 11.5528 128.275 11.8043C128.258 12.0378 128.231 12.2893 128.195 12.5588H118.7C118.789 13.1876 118.984 13.7355 119.287 14.2026C119.607 14.6517 120.007 15.002 120.487 15.2535C120.967 15.505 121.518 15.6308 122.141 15.6308C122.887 15.6308 123.554 15.4781 124.141 15.1727C124.746 14.8673 125.164 14.4631 125.395 13.96L128.035 14.8493C127.502 15.9272 126.711 16.7805 125.661 17.4093C124.612 18.0201 123.439 18.3255 122.141 18.3255ZM125.021 10.0796C125.004 9.52273 124.852 9.01972 124.568 8.57059C124.283 8.12147 123.91 7.77116 123.448 7.51965C122.985 7.25018 122.47 7.11544 121.901 7.11544C121.403 7.11544 120.932 7.2412 120.487 7.4927C120.042 7.74421 119.66 8.09453 119.34 8.54365C119.038 8.9748 118.842 9.4868 118.753 10.0796H125.021Z" fill="#0EA960"/>
</svg>
