<svg width="171" height="38" viewBox="0 0 171 38" fill="none" xmlns="http://www.w3.org/2000/svg">
<path fill-rule="evenodd" clip-rule="evenodd" d="M1.14441e-05 18.5791C1.14441e-05 28.8401 8.08383 37.1582 18.0557 37.1582C28.0277 37.1582 36.1115 28.8401 36.1115 18.5791C36.1115 8.6819 28.5907 0.592164 19.109 0.0309577L0.451359 0C0.285179 0 0.150436 0.138648 0.150436 0.309577C0.150436 3.14551 2.00288 5.53613 4.53059 6.27038C1.71135 9.54792 1.14441e-05 13.8579 1.14441e-05 18.5791ZM17.8751 7.85742C14.9833 7.85742 12.639 24.1636 12.639 27.1565C12.639 30.1493 14.9833 32.2425 17.8751 32.2425C20.767 32.2425 23.1113 30.1493 23.1113 27.1565C23.1113 24.1636 20.767 7.85742 17.8751 7.85742Z" fill="#15B369"/>
<path d="M60.3419 6.18783H63.9524V21.3863C63.9524 23.4128 63.4568 25.1531 62.4657 26.6074C61.4746 28.0856 60.047 29.218 58.1827 30.0047C56.3185 30.8153 54.0767 31.2206 51.4574 31.2206L50.8557 27.7518C53.829 27.6803 56.0826 27.1081 57.6164 26.0352C59.1738 24.9624 59.9526 23.4247 59.9526 21.4221V21.3863H60.4127C59.87 22.1969 59.0795 22.8883 58.0412 23.4604C57.0265 24.0326 55.8112 24.3187 54.3953 24.3187C52.8379 24.3187 51.4574 23.9373 50.2539 23.1744C49.0504 22.4115 48.1065 21.3386 47.4222 19.9559C46.7615 18.5731 46.4311 16.9638 46.4311 15.1281C46.4311 13.2924 46.7615 11.6831 47.4222 10.3004C48.1065 8.91759 49.0504 7.84476 50.2539 7.08186C51.4574 6.31895 52.8379 5.9375 54.3953 5.9375C55.2684 5.9375 56.059 6.0567 56.7669 6.29511C57.4984 6.50968 58.1356 6.80769 58.6783 7.18914C59.2446 7.54675 59.7048 7.95204 60.0588 8.40502L60.3419 6.18783ZM50.7141 15.1281C50.7141 16.7731 51.1388 18.1082 51.9884 19.1334C52.8379 20.1585 53.9706 20.6711 55.3864 20.6711C56.2123 20.6711 56.9675 20.4565 57.6518 20.0274C58.3361 19.5744 58.8907 18.9307 59.3154 18.0963C59.7402 17.2619 59.9526 16.2725 59.9526 15.1281C59.9526 13.9361 59.7402 12.9348 59.3154 12.1242C58.8907 11.2897 58.3243 10.658 57.6164 10.2288C56.9321 9.7997 56.1887 9.58513 55.3864 9.58513C53.9706 9.58513 52.8379 10.0977 51.9884 11.1229C51.1388 12.1242 50.7141 13.4593 50.7141 15.1281Z" fill="#15B369"/>
<path d="M66.1677 6.18783H69.7782L70.0967 8.40502C70.5687 7.809 71.1232 7.32026 71.7604 6.93881C72.3975 6.53352 73.0818 6.25935 73.8134 6.11631C74.5685 5.97326 75.3236 5.9971 76.0787 6.18783V9.90698C75.4652 9.69242 74.8045 9.64474 74.0965 9.76394C73.4122 9.8593 72.7751 10.1216 72.1851 10.5507C71.5952 10.956 71.1114 11.5401 70.7339 12.303C70.3563 13.042 70.1675 13.9599 70.1675 15.0566V24.0684H66.1677V6.18783Z" fill="#15B369"/>
<path d="M84.6497 24.3187C82.9507 24.3187 81.4286 23.9492 80.0835 23.2101C78.7385 22.4472 77.6884 21.3863 76.9332 20.0274C76.1781 18.6446 75.8006 17.0234 75.8006 15.1639C75.8006 13.2804 76.1899 11.6474 76.9686 10.2646C77.7474 8.88183 78.8211 7.82092 80.1897 7.08186C81.5584 6.31895 83.0804 5.9375 84.7559 5.9375C86.4549 5.9375 87.977 6.31895 89.322 7.08186C90.6907 7.82092 91.7762 8.88183 92.5785 10.2646C93.3808 11.6235 93.782 13.2328 93.782 15.0923C93.782 16.9758 93.369 18.6089 92.5431 19.9916C91.7408 21.3744 90.6435 22.4472 89.2512 23.2101C87.8826 23.9492 86.3487 24.3187 84.6497 24.3187ZM84.6143 20.7068C85.4402 20.7068 86.2189 20.5042 86.9505 20.0989C87.7056 19.6936 88.3191 19.0857 88.7911 18.2751C89.263 17.4407 89.499 16.3797 89.499 15.0923C89.499 13.8526 89.2748 12.8275 88.8265 12.0169C88.3781 11.1825 87.7882 10.5626 87.0567 10.1573C86.3251 9.75202 85.5346 9.54937 84.6851 9.54937C83.8592 9.54937 83.0922 9.75202 82.3843 10.1573C81.7 10.5626 81.1454 11.1825 80.7207 12.0169C80.2959 12.8275 80.0835 13.8765 80.0835 15.1639C80.0835 16.4036 80.2841 17.4407 80.6853 18.2751C81.11 19.0857 81.6646 19.6936 82.3489 20.0989C83.0332 20.5042 83.7884 20.7068 84.6143 20.7068Z" fill="#15B369"/>
<path d="M102.876 24.0684H98.9468L93.4958 6.18783H97.5664L100.894 19.2764L104.327 6.18783H108.221L111.513 19.2406L114.804 6.18783H118.804L113.389 24.0684H109.389L106.168 11.9811L102.876 24.0684Z" fill="#15B369"/>
<path d="M119.469 6.18783H123.079L123.362 7.94012C123.952 7.32026 124.648 6.83153 125.451 6.47392C126.276 6.11631 127.161 5.9375 128.105 5.9375C129.498 5.9375 130.689 6.23551 131.68 6.83153C132.695 7.40371 133.474 8.26197 134.017 9.40633C134.559 10.5268 134.831 11.9334 134.831 13.6261V24.0684H130.831V14.1626C130.831 12.6606 130.524 11.5282 129.911 10.7653C129.321 10.0023 128.424 9.6209 127.22 9.6209C125.993 9.6209 125.061 10.0143 124.424 10.801C123.787 11.5639 123.468 12.6964 123.468 14.1983V24.0684H119.469V6.18783Z" fill="#15B369"/>
<path d="M144.692 24.3187C142.922 24.3187 141.365 23.9253 140.02 23.1386C138.698 22.3519 137.66 21.2552 136.905 19.8486C136.173 18.442 135.807 16.8208 135.807 14.9851C135.807 13.2447 136.173 11.695 136.905 10.3361C137.636 8.9772 138.651 7.90436 139.949 7.11762C141.247 6.33087 142.722 5.9375 144.373 5.9375C146.049 5.9375 147.524 6.30703 148.798 7.0461C150.072 7.78516 151.063 8.82223 151.771 10.1573C152.503 11.4686 152.869 12.9944 152.869 14.7347C152.869 15.0208 152.857 15.3308 152.833 15.6645C152.81 15.9745 152.774 16.3082 152.727 16.6658H140.126C140.244 17.5003 140.503 18.2274 140.904 18.8473C141.329 19.4433 141.86 19.9082 142.497 20.2419C143.134 20.5757 143.866 20.7426 144.692 20.7426C145.683 20.7426 146.568 20.54 147.347 20.1347C148.149 19.7294 148.704 19.193 149.01 18.5254L152.515 19.7055C151.807 21.136 150.757 22.2684 149.364 23.1028C147.972 23.9134 146.415 24.3187 144.692 24.3187ZM148.515 13.3758C148.491 12.6367 148.291 11.9692 147.913 11.3732C147.535 10.7772 147.04 10.3123 146.426 9.97851C145.813 9.6209 145.128 9.44209 144.373 9.44209C143.713 9.44209 143.087 9.60897 142.497 9.94275C141.907 10.2765 141.4 10.7414 140.975 11.3374C140.574 11.9096 140.315 12.5891 140.197 13.3758H148.515Z" fill="#15B369"/>
<path d="M162.09 24.3187C160.32 24.3187 158.763 23.9253 157.418 23.1386C156.096 22.3519 155.058 21.2552 154.303 19.8486C153.571 18.442 153.206 16.8208 153.206 14.9851C153.206 13.2447 153.571 11.695 154.303 10.3361C155.034 8.9772 156.049 7.90436 157.347 7.11762C158.645 6.33087 160.12 5.9375 161.772 5.9375C163.447 5.9375 164.922 6.30703 166.196 7.0461C167.47 7.78516 168.462 8.82223 169.169 10.1573C169.901 11.4686 170.267 12.9944 170.267 14.7347C170.267 15.0208 170.255 15.3308 170.231 15.6645C170.208 15.9745 170.172 16.3082 170.125 16.6658H157.524C157.642 17.5003 157.902 18.2274 158.303 18.8473C158.727 19.4433 159.258 19.9082 159.896 20.2419C160.533 20.5757 161.264 20.7426 162.09 20.7426C163.081 20.7426 163.966 20.54 164.745 20.1347C165.547 19.7294 166.102 19.193 166.409 18.5254L169.913 19.7055C169.205 21.136 168.155 22.2684 166.762 23.1028C165.37 23.9134 163.813 24.3187 162.09 24.3187ZM165.913 13.3758C165.889 12.6367 165.689 11.9692 165.311 11.3732C164.934 10.7772 164.438 10.3123 163.825 9.97851C163.211 9.6209 162.527 9.44209 161.772 9.44209C161.111 9.44209 160.486 9.60897 159.896 9.94275C159.306 10.2765 158.798 10.7414 158.374 11.3374C157.972 11.9096 157.713 12.5891 157.595 13.3758H165.913Z" fill="#15B369"/>
</svg>
